<svg width="24" height="24" fill="none" xmlns="http://www.w3.org/2000/svg"><path fill-rule="evenodd" clip-rule="evenodd" d="M2.788.09C2.3.216 1.942.426 1.553.813c-.393.39-.593.735-.724 1.25-.088.344-.09.536-.09 9.512.002 10.15-.018 9.486.302 10.136.23.466.729.965 1.195 1.195.587.29.707.3 3.218.3 2.073 0 2.258-.006 2.426-.083.307-.14.565-.515.565-.822 0-.166-.106-.423-.235-.57-.286-.326-.167-.311-2.737-.337l-2.315-.022-.184-.122a1.162 1.162 0 01-.291-.295l-.108-.173-.012-9.138-.011-9.138.105-.2c.059-.111.193-.262.3-.337l.193-.136 4.234-.013 4.235-.012.001 1.486c0 1.68.029 1.905.3 2.46.23.466.73.965 1.196 1.194.554.273.779.3 2.459.301l1.484.001v.387c0 .619.208.958.668 1.092.215.062.263.062.478 0a.927.927 0 00.597-.537c.088-.21.102-1.84.018-2.138-.045-.161-.444-.578-2.935-3.07C13.394.495 12.977.095 12.815.05 12.68.012 11.342-.002 7.874 0c-4.532.003-4.77.007-5.086.09zm10.645 3.784c0 .424.022.848.048.943.063.228.351.512.582.574.105.029.495.044.932.037l.75-.013L14.59 4.26l-1.156-1.155v.77zM4.965 8.753c-.215.062-.493.359-.556.592a.935.935 0 00.396 1.04l.173.107h9.656l.173-.107c.095-.06.228-.19.295-.291.101-.154.121-.235.121-.486 0-.25-.02-.331-.121-.485a1.161 1.161 0 00-.295-.29l-.173-.109-4.76-.007c-2.923-.005-4.818.009-4.91.036zm15.245.863c-.157.042-.723.589-4.276 4.134-2.251 2.248-4.204 4.232-4.339 4.41-.53.699-.704 1.181-1.04 2.873-.253 1.272-.265 1.42-.135 1.677.133.262.505.499.784.499.2 0 2.555-.486 2.87-.592a5.317 5.317 0 001.217-.622c.18-.125 1.884-1.791 4.365-4.267 4.223-4.215 4.295-4.292 4.294-4.649 0-.394-.03-.431-1.489-1.899-.764-.768-1.464-1.436-1.555-1.483a.986.986 0 00-.696-.08zm-3.437 5.872c-2.036 2.04-3.755 3.787-3.82 3.883-.209.306-.339.648-.454 1.19-.061.291-.101.54-.088.553.037.037.93-.155 1.214-.262a3.07 3.07 0 00.521-.273c.152-.103 1.79-1.707 3.933-3.85l3.672-3.675-.638-.638-.637-.637-3.703 3.709zM4.965 12.38c-.214.061-.493.358-.556.592a.935.935 0 00.396 1.04l.173.107 3.853.014c2.728.01 3.904-.001 4.026-.037a.939.939 0 00.602-.617c.064-.22.064-.267.001-.482a.909.909 0 00-.218-.383c-.31-.3-.093-.286-4.307-.281-2.26.002-3.882.021-3.97.047zm0 3.626c-.215.063-.493.36-.556.592a.935.935 0 00.396 1.04l.173.108h2.221c2.088 0 2.232-.005 2.394-.086a.899.899 0 00.446-1.013c-.073-.273-.227-.475-.446-.583-.161-.08-.314-.087-2.326-.094-1.272-.005-2.214.01-2.302.036z" fill="#fff"/></svg>